<svg width="24" height="24" viewBox="0 0 24 24" fill="none" xmlns="http://www.w3.org/2000/svg">
<g clip-path="url(#clip0_411_3)">
<mask id="mask0_411_3" style="mask-type:luminance" maskUnits="userSpaceOnUse" x="-88" y="-95" width="204" height="156">
<path d="M-87.2766 -94.0708H115.552V60.9719H-87.2766V-94.0708Z" fill="white"/>
</mask>
<g mask="url(#mask0_411_3)">
<path d="M11.9998 0.260453C5.50625 0.260453 0.240929 4.75483 0.240929 10.3022C0.240929 13.8655 2.42174 16.9941 5.69681 18.7797L4.58882 23.2509C4.54642 23.3882 4.58159 23.5335 4.67362 23.6325C4.73698 23.7015 4.82155 23.7395 4.91334 23.7395C4.98417 23.7395 5.05452 23.7091 5.11812 23.6557L9.88232 20.176C10.5742 20.2828 11.2801 20.3438 11.9998 20.3438C18.4933 20.3438 23.7591 15.8496 23.7591 10.3022C23.7591 4.75483 18.4933 0.260453 11.9998 0.260453Z" fill="#3C1E1E"/>
</g>
</g>
<defs>
<clipPath id="clip0_411_3">
<rect width="24" height="24" fill="white"/>
</clipPath>
</defs>
</svg>
